<svg width="180" height="169" viewBox="0 0 180 169" fill="none" xmlns="http://www.w3.org/2000/svg">
<g id="Groupe 607">
<g id="Groupe 591">
<path id="Trac&#195;&#169; 750" d="M178.301 113.288C177.169 109.414 175.609 105.909 173.622 102.769C171.633 99.6294 169.27 96.8558 166.529 94.4516C163.786 92.0473 160.816 90.0323 157.616 88.4029C154.417 86.7734 151.04 85.5418 147.483 84.7071C143.926 83.8724 140.32 83.4555 136.663 83.4555C133.005 83.4555 129.401 83.8724 125.844 84.7071C125.497 84.7884 125.153 84.8768 124.81 84.9657C123.686 84.43 122.482 83.9261 121.194 83.4555C117.717 82.1835 113.632 81.2495 108.944 80.6534C113.077 80.1372 116.684 79.2706 119.764 78.0585C122.844 76.8464 125.407 75.408 127.454 73.7386C129.5 72.0697 131.03 70.2415 132.044 68.2546C133.057 66.2677 133.564 64.2209 133.564 62.1146C133.564 59.4917 133.077 57.1469 132.103 55.0805C131.129 53.0138 129.769 51.1937 128.02 49.6241C126.269 48.0545 124.195 46.7231 121.79 45.6303C119.386 44.5375 116.753 43.6434 113.892 42.948C111.031 42.2525 108 41.7477 104.801 41.4297C101.602 41.1117 98.3338 40.9529 94.9955 40.9529C92.0151 40.9529 89.1735 41.0599 86.4712 41.2786C83.7665 41.4972 81.126 41.8271 78.543 42.2644C77.8538 42.3809 77.1669 42.5059 76.481 42.638V0H69.1489L49.5967 6.08055V12.6973L69.1489 6.55732V44.3569C67.1491 44.9049 65.1142 45.5181 63.0441 46.1983V54.7825C65.107 53.7334 67.1405 52.8065 69.1489 51.988V81.9054H76.481V49.4929C76.7909 49.4083 77.0984 49.3189 77.4103 49.2386C79.874 48.6031 82.4475 48.1258 85.1298 47.8078C87.8122 47.4903 90.7036 47.3311 93.8033 47.3311C104.414 47.3311 112.451 48.6625 117.916 51.3249C123.38 53.9877 126.112 57.7429 126.112 62.5914C126.112 67.7973 122.693 71.581 115.859 73.9454C109.024 76.3097 98.8481 77.4943 85.3385 77.4943V83.9323C99.3739 84.0074 109.964 85.268 117.123 87.7079C116.639 87.9318 116.157 88.1619 115.68 88.4029C112.461 90.0323 109.481 92.0473 106.739 94.4516C103.997 96.8558 101.622 99.6294 99.6153 102.769C97.6084 105.909 96.0384 109.414 94.9061 113.288C94.3315 115.255 93.9037 117.312 93.6208 119.458C87.6391 119.449 82.0254 118.783 76.7885 117.461C72.0755 116.272 67.4966 114.405 63.0388 111.933V120.291C64.7643 120.965 66.4922 121.636 68.2899 122.23C70.6343 123.005 73.156 123.673 75.8602 124.229C78.5625 124.785 81.5234 125.211 84.7424 125.509C87.3102 125.747 90.1337 125.889 93.2073 125.938V125.958C93.2073 130.528 93.7734 134.749 94.9061 138.623C96.0384 142.498 97.6084 146.007 99.6153 149.146C101.622 152.286 103.997 155.056 106.739 157.46C109.481 159.865 112.461 161.883 115.68 163.512C118.899 165.142 122.287 166.374 125.844 167.209C129.401 168.043 133.005 168.46 136.663 168.46C140.32 168.46 143.926 168.043 147.483 167.209C151.04 166.374 154.417 165.142 157.616 163.512C160.816 161.883 163.786 159.865 166.529 157.46C169.27 155.056 171.633 152.286 173.622 149.146C175.609 146.007 177.169 142.498 178.301 138.623C179.434 134.749 180.001 130.528 180.001 125.958C180.001 121.388 179.434 117.163 178.301 113.288ZM112.104 98.7753C115.522 95.7949 119.376 93.5774 123.668 92.1267C124.024 92.0064 124.381 91.8985 124.737 91.7882C127.56 94.2377 128.974 97.3212 128.974 101.04C128.974 103.783 128.268 106.286 126.861 108.552C125.452 110.817 123.311 112.752 120.435 114.362C117.558 115.971 113.908 117.223 109.487 118.117C106.972 118.625 104.183 118.984 101.137 119.204C101.637 115.839 102.527 112.771 103.818 110.01C105.924 105.499 108.684 101.756 112.104 98.7753ZM171.118 137.045C170.164 140.384 168.843 143.392 167.154 146.074C165.465 148.757 163.466 151.094 161.163 153.081C158.858 155.068 156.373 156.717 153.712 158.028C151.05 159.34 148.265 160.321 145.366 160.977C142.465 161.633 139.562 161.963 136.663 161.963C132.29 161.963 127.96 161.235 123.668 159.785C119.376 158.334 115.522 156.121 112.104 153.14C108.684 150.16 105.924 146.412 103.818 141.901C101.71 137.391 100.658 132.078 100.658 125.958C100.658 125.908 100.662 125.861 100.662 125.812C104.414 125.6 108.022 125.156 111.478 124.467C116.465 123.474 120.817 121.952 124.533 119.905C128.248 117.859 131.189 115.256 133.355 112.096C135.521 108.937 136.604 105.213 136.604 100.921C136.604 98.4573 136.045 96.1205 134.935 93.9149C134.269 92.5944 133.387 91.358 132.301 90.202C133.75 90.0409 135.204 89.9529 136.663 89.9529C139.562 89.9529 142.465 90.2785 145.366 90.9345C148.265 91.59 151.04 92.564 153.682 93.8555C156.325 95.147 158.799 96.7883 161.104 98.7753C163.407 100.762 165.406 103.087 167.095 105.75C168.784 108.412 170.115 111.433 171.088 114.81C172.062 118.189 172.549 121.904 172.549 125.958C172.549 130.011 172.072 133.707 171.118 137.045Z" fill="#815850"/>
<path id="Trac&#195;&#169; 751" d="M0 54.8078V28.5576H2.38811V52.5728H21.5695V54.8078H0Z" fill="#815850"/>
<path id="Trac&#195;&#169; 752" d="M27.4346 54.8078V28.5576H49.5964V30.7931H30.0328V39.8294H48.3353V42.0074H30.0328V52.5728H49.5964V54.8078H27.4346Z" fill="#815850"/>
</g>
</g>
</svg>
